<svg xmlns="http://www.w3.org/2000/svg" width="900" height="520" viewBox="0 0 900 520">
<rect width="100%" height="100%" fill="#fff"/>
<text x="80" y="34" font-family="Arial" font-size="24" fill="#111">Rank-One Coherent Array Factor</text>
<line x1="80" y1="450" x2="870" y2="450" stroke="#222"/>
<line x1="80" y1="60" x2="80" y2="450" stroke="#222"/>
<text x="450.0" y="500" font-family="Arial" font-size="16" text-anchor="middle">Observer angle (deg)</text>
<text x="22" y="260.0" font-family="Arial" font-size="16" text-anchor="middle" transform="rotate(-90 22 260.0)">Normalized power</text>
<polyline points="80.00,424.84 81.10,424.84 82.19,424.84 83.29,424.84 84.39,424.84 85.49,424.84 86.58,424.84 87.68,424.84 88.78,424.84 89.88,424.85 90.97,424.85 92.07,424.85 93.17,424.85 94.26,424.86 95.36,424.86 96.46,424.86 97.56,424.87 98.65,424.87 99.75,424.88 100.85,424.88 101.94,424.89 103.04,424.90 104.14,424.90 105.24,424.91 106.33,424.92 107.43,424.93 108.53,424.93 109.62,424.94 110.72,424.95 111.82,424.96 112.92,424.97 114.01,424.99 115.11,425.00 116.21,425.01 117.31,425.02 118.40,425.04 119.50,425.05 120.60,425.07 121.69,425.09 122.79,425.10 123.89,425.12 124.99,425.14 126.08,425.16 127.18,425.19 128.28,425.21 129.38,425.23 130.47,425.26 131.57,425.28 132.67,425.31 133.76,425.34 134.86,425.37 135.96,425.40 137.06,425.43 138.15,425.47 139.25,425.50 140.35,425.54 141.44,425.57 142.54,425.61 143.64,425.65 144.74,425.70 145.83,425.74 146.93,425.79 148.03,425.83 149.12,425.88 150.22,425.93 151.32,425.99 152.42,426.04 153.51,426.10 154.61,426.15 155.71,426.21 156.81,426.28 157.90,426.34 159.00,426.40 160.10,426.47 161.19,426.54 162.29,426.61 163.39,426.68 164.49,426.76 165.58,426.84 166.68,426.91 167.78,427.00 168.88,427.08 169.97,427.16 171.07,427.25 172.17,427.34 173.26,427.43 174.36,427.52 175.46,427.61 176.56,427.71 177.65,427.80 178.75,427.90 179.85,428.00 180.94,428.10 182.04,428.21 183.14,428.31 184.24,428.42 185.33,428.53 186.43,428.63 187.53,428.74 188.62,428.85 189.72,428.97 190.82,429.08 191.92,429.19 193.01,429.31 194.11,429.42 195.21,429.53 196.31,429.65 197.40,429.76 198.50,429.88 199.60,429.99 200.69,430.11 201.79,430.22 202.89,430.33 203.99,430.44 205.08,430.55 206.18,430.66 207.28,430.77 208.38,430.88 209.47,430.98 210.57,431.08 211.67,431.18 212.76,431.28 213.86,431.37 214.96,431.46 216.06,431.55 217.15,431.63 218.25,431.71 219.35,431.79 220.44,431.86 221.54,431.93 222.64,431.99 223.74,432.04 224.83,432.09 225.93,432.14 227.03,432.18 228.12,432.21 229.22,432.24 230.32,432.26 231.42,432.27 232.51,432.27 233.61,432.27 234.71,432.26 235.81,432.24 236.90,432.21 238.00,432.18 239.10,432.13 240.19,432.08 241.29,432.01 242.39,431.94 243.49,431.86 244.58,431.77 245.68,431.66 246.78,431.55 247.88,431.43 248.97,431.29 250.07,431.15 251.17,430.99 252.26,430.83 253.36,430.65 254.46,430.46 255.56,430.27 256.65,430.06 257.75,429.84 258.85,429.60 259.94,429.36 261.04,429.11 262.14,428.85 263.24,428.58 264.33,428.29 265.43,428.00 266.53,427.70 267.62,427.39 268.72,427.06 269.82,426.74 270.92,426.40 272.01,426.05 273.11,425.70 274.21,425.34 275.31,424.97 276.40,424.60 277.50,424.23 278.60,423.84 279.69,423.46 280.79,423.07 281.89,422.68 282.99,422.28 284.08,421.89 285.18,421.49 286.28,421.10 287.38,420.70 288.47,420.31 289.57,419.93 290.67,419.54 291.76,419.16 292.86,418.79 293.96,418.42 295.06,418.07 296.15,417.72 297.25,417.38 298.35,417.05 299.44,416.73 300.54,416.43 301.64,416.14 302.74,415.86 303.83,415.60 304.93,415.36 306.03,415.14 307.12,414.93 308.22,414.75 309.32,414.58 310.42,414.44 311.51,414.32 312.61,414.22 313.71,414.15 314.81,414.10 315.90,414.07 317.00,414.08 318.10,414.11 319.19,414.16 320.29,414.24 321.39,414.35 322.49,414.49 323.58,414.66 324.68,414.85 325.78,415.08 326.88,415.33 327.97,415.60 329.07,415.91 330.17,416.24 331.26,416.60 332.36,416.98 333.46,417.39 334.56,417.83 335.65,418.28 336.75,418.76 337.85,419.26 338.94,419.78 340.04,420.31 341.14,420.86 342.24,421.43 343.33,422.01 344.43,422.60 345.53,423.19 346.62,423.79 347.72,424.40 348.82,425.00 349.92,425.60 351.01,426.20 352.11,426.79 353.21,427.37 354.31,427.93 355.40,428.48 356.50,429.00 357.60,429.50 358.69,429.97 359.79,430.41 360.89,430.81 361.99,431.17 363.08,431.49 364.18,431.76 365.28,431.98 366.38,432.14 367.47,432.24 368.57,432.27 369.67,432.24 370.76,432.13 371.86,431.94 372.96,431.68 374.06,431.32 375.15,430.88 376.25,430.34 377.35,429.70 378.44,428.96 379.54,428.11 380.64,427.15 381.74,426.08 382.83,424.89 383.93,423.58 385.03,422.14 386.12,420.58 387.22,418.88 388.32,417.05 389.42,415.09 390.51,412.99 391.61,410.74 392.71,408.35 393.81,405.82 394.90,403.14 396.00,400.32 397.10,397.34 398.19,394.22 399.29,390.95 400.39,387.53 401.49,383.96 402.58,380.24 403.68,376.38 404.78,372.37 405.88,368.22 406.97,363.92 408.07,359.48 409.17,354.91 410.26,350.20 411.36,345.36 412.46,340.39 413.56,335.30 414.65,330.09 415.75,324.76 416.85,319.33 417.94,313.79 419.04,308.15 420.14,302.42 421.24,296.61 422.33,290.71 423.43,284.74 424.53,278.71 425.62,272.61 426.72,266.47 427.82,260.28 428.92,254.06 430.01,247.82 431.11,241.55 432.21,235.28 433.31,229.01 434.40,222.74 435.50,216.50 436.60,210.28 437.69,204.10 438.79,197.96 439.89,191.88 440.99,185.87 442.08,179.93 443.18,174.07 444.28,168.31 445.38,162.65 446.47,157.11 447.57,151.68 448.67,146.39 449.76,141.23 450.86,136.23 451.96,131.37 453.06,126.69 454.15,122.18 455.25,117.84 456.35,113.70 457.44,109.75 458.54,106.01 459.64,102.47 460.74,99.15 461.83,96.05 462.93,93.18 464.03,90.54 465.12,88.13 466.22,85.97 467.32,84.05 468.42,82.38 469.51,80.97 470.61,79.80 471.71,78.90 472.81,78.25 473.90,77.86 475.00,77.73 476.10,77.86 477.19,78.25 478.29,78.90 479.39,79.80 480.49,80.97 481.58,82.38 482.68,84.05 483.78,85.97 484.87,88.13 485.97,90.54 487.07,93.18 488.17,96.05 489.26,99.15 490.36,102.47 491.46,106.01 492.56,109.75 493.65,113.70 494.75,117.84 495.85,122.18 496.94,126.69 498.04,131.37 499.14,136.23 500.24,141.23 501.33,146.39 502.43,151.68 503.53,157.11 504.62,162.65 505.72,168.31 506.82,174.07 507.92,179.93 509.01,185.87 510.11,191.88 511.21,197.96 512.31,204.10 513.40,210.28 514.50,216.50 515.60,222.74 516.69,229.01 517.79,235.28 518.89,241.55 519.99,247.82 521.08,254.06 522.18,260.28 523.28,266.47 524.38,272.61 525.47,278.71 526.57,284.74 527.67,290.71 528.76,296.61 529.86,302.42 530.96,308.15 532.06,313.79 533.15,319.33 534.25,324.76 535.35,330.09 536.44,335.30 537.54,340.39 538.64,345.36 539.74,350.20 540.83,354.91 541.93,359.48 543.03,363.92 544.12,368.22 545.22,372.37 546.32,376.38 547.42,380.24 548.51,383.96 549.61,387.53 550.71,390.95 551.81,394.22 552.90,397.34 554.00,400.32 555.10,403.14 556.19,405.82 557.29,408.35 558.39,410.74 559.49,412.99 560.58,415.09 561.68,417.05 562.78,418.88 563.88,420.58 564.97,422.14 566.07,423.58 567.17,424.89 568.26,426.08 569.36,427.15 570.46,428.11 571.56,428.96 572.65,429.70 573.75,430.34 574.85,430.88 575.94,431.32 577.04,431.68 578.14,431.94 579.24,432.13 580.33,432.24 581.43,432.27 582.53,432.24 583.62,432.14 584.72,431.98 585.82,431.76 586.92,431.49 588.01,431.17 589.11,430.81 590.21,430.41 591.31,429.97 592.40,429.50 593.50,429.00 594.60,428.48 595.69,427.93 596.79,427.37 597.89,426.79 598.99,426.20 600.08,425.60 601.18,425.00 602.28,424.40 603.38,423.79 604.47,423.19 605.57,422.60 606.67,422.01 607.76,421.43 608.86,420.86 609.96,420.31 611.06,419.78 612.15,419.26 613.25,418.76 614.35,418.28 615.44,417.83 616.54,417.39 617.64,416.98 618.74,416.60 619.83,416.24 620.93,415.91 622.03,415.60 623.13,415.33 624.22,415.08 625.32,414.85 626.42,414.66 627.51,414.49 628.61,414.35 629.71,414.24 630.81,414.16 631.90,414.11 633.00,414.08 634.10,414.07 635.19,414.10 636.29,414.15 637.39,414.22 638.49,414.32 639.58,414.44 640.68,414.58 641.78,414.75 642.88,414.93 643.97,415.14 645.07,415.36 646.17,415.60 647.26,415.86 648.36,416.14 649.46,416.43 650.56,416.73 651.65,417.05 652.75,417.38 653.85,417.72 654.94,418.07 656.04,418.42 657.14,418.79 658.24,419.16 659.33,419.54 660.43,419.93 661.53,420.31 662.62,420.70 663.72,421.10 664.82,421.49 665.92,421.89 667.01,422.28 668.11,422.68 669.21,423.07 670.31,423.46 671.40,423.84 672.50,424.23 673.60,424.60 674.69,424.97 675.79,425.34 676.89,425.70 677.99,426.05 679.08,426.40 680.18,426.74 681.28,427.06 682.38,427.39 683.47,427.70 684.57,428.00 685.67,428.29 686.76,428.58 687.86,428.85 688.96,429.11 690.06,429.36 691.15,429.60 692.25,429.84 693.35,430.06 694.44,430.27 695.54,430.46 696.64,430.65 697.74,430.83 698.83,430.99 699.93,431.15 701.03,431.29 702.12,431.43 703.22,431.55 704.32,431.66 705.42,431.77 706.51,431.86 707.61,431.94 708.71,432.01 709.81,432.08 710.90,432.13 712.00,432.18 713.10,432.21 714.19,432.24 715.29,432.26 716.39,432.27 717.49,432.27 718.58,432.27 719.68,432.26 720.78,432.24 721.88,432.21 722.97,432.18 724.07,432.14 725.17,432.09 726.26,432.04 727.36,431.99 728.46,431.93 729.56,431.86 730.65,431.79 731.75,431.71 732.85,431.63 733.94,431.55 735.04,431.46 736.14,431.37 737.24,431.28 738.33,431.18 739.43,431.08 740.53,430.98 741.62,430.88 742.72,430.77 743.82,430.66 744.92,430.55 746.01,430.44 747.11,430.33 748.21,430.22 749.31,430.11 750.40,429.99 751.50,429.88 752.60,429.76 753.69,429.65 754.79,429.53 755.89,429.42 756.99,429.31 758.08,429.19 759.18,429.08 760.28,428.97 761.38,428.85 762.47,428.74 763.57,428.63 764.67,428.53 765.76,428.42 766.86,428.31 767.96,428.21 769.06,428.10 770.15,428.00 771.25,427.90 772.35,427.80 773.44,427.71 774.54,427.61 775.64,427.52 776.74,427.43 777.83,427.34 778.93,427.25 780.03,427.16 781.12,427.08 782.22,427.00 783.32,426.91 784.42,426.84 785.51,426.76 786.61,426.68 787.71,426.61 788.81,426.54 789.90,426.47 791.00,426.40 792.10,426.34 793.19,426.28 794.29,426.21 795.39,426.15 796.49,426.10 797.58,426.04 798.68,425.99 799.78,425.93 800.88,425.88 801.97,425.83 803.07,425.79 804.17,425.74 805.26,425.70 806.36,425.65 807.46,425.61 808.56,425.57 809.65,425.54 810.75,425.50 811.85,425.47 812.94,425.43 814.04,425.40 815.14,425.37 816.24,425.34 817.33,425.31 818.43,425.28 819.53,425.26 820.62,425.23 821.72,425.21 822.82,425.19 823.92,425.16 825.01,425.14 826.11,425.12 827.21,425.10 828.31,425.09 829.40,425.07 830.50,425.05 831.60,425.04 832.69,425.02 833.79,425.01 834.89,425.00 835.99,424.99 837.08,424.97 838.18,424.96 839.28,424.95 840.38,424.94 841.47,424.93 842.57,424.93 843.67,424.92 844.76,424.91 845.86,424.90 846.96,424.90 848.06,424.89 849.15,424.88 850.25,424.88 851.35,424.87 852.44,424.87 853.54,424.86 854.64,424.86 855.74,424.86 856.83,424.85 857.93,424.85 859.03,424.85 860.12,424.85 861.22,424.84 862.32,424.84 863.42,424.84 864.51,424.84 865.61,424.84 866.71,424.84 867.81,424.84 868.90,424.84 870.00,424.84" fill="none" stroke="#1f77b4" stroke-width="2"/>
<polyline points="80.00,424.84 81.10,424.84 82.19,424.84 83.29,424.84 84.39,424.84 85.49,424.84 86.58,424.84 87.68,424.84 88.78,424.84 89.88,424.85 90.97,424.85 92.07,424.85 93.17,424.85 94.26,424.86 95.36,424.86 96.46,424.86 97.56,424.87 98.65,424.87 99.75,424.88 100.85,424.88 101.94,424.89 103.04,424.90 104.14,424.90 105.24,424.91 106.33,424.92 107.43,424.93 108.53,424.93 109.62,424.94 110.72,424.95 111.82,424.96 112.92,424.97 114.01,424.99 115.11,425.00 116.21,425.01 117.31,425.02 118.40,425.04 119.50,425.05 120.60,425.07 121.69,425.09 122.79,425.10 123.89,425.12 124.99,425.14 126.08,425.16 127.18,425.19 128.28,425.21 129.38,425.23 130.47,425.26 131.57,425.28 132.67,425.31 133.76,425.34 134.86,425.37 135.96,425.40 137.06,425.43 138.15,425.47 139.25,425.50 140.35,425.54 141.44,425.57 142.54,425.61 143.64,425.65 144.74,425.70 145.83,425.74 146.93,425.79 148.03,425.83 149.12,425.88 150.22,425.93 151.32,425.99 152.42,426.04 153.51,426.10 154.61,426.15 155.71,426.21 156.81,426.28 157.90,426.34 159.00,426.40 160.10,426.47 161.19,426.54 162.29,426.61 163.39,426.68 164.49,426.76 165.58,426.84 166.68,426.91 167.78,427.00 168.88,427.08 169.97,427.16 171.07,427.25 172.17,427.34 173.26,427.43 174.36,427.52 175.46,427.61 176.56,427.71 177.65,427.80 178.75,427.90 179.85,428.00 180.94,428.10 182.04,428.21 183.14,428.31 184.24,428.42 185.33,428.53 186.43,428.63 187.53,428.74 188.62,428.85 189.72,428.97 190.82,429.08 191.92,429.19 193.01,429.31 194.11,429.42 195.21,429.53 196.31,429.65 197.40,429.76 198.50,429.88 199.60,429.99 200.69,430.11 201.79,430.22 202.89,430.33 203.99,430.44 205.08,430.55 206.18,430.66 207.28,430.77 208.38,430.88 209.47,430.98 210.57,431.08 211.67,431.18 212.76,431.28 213.86,431.37 214.96,431.46 216.06,431.55 217.15,431.63 218.25,431.71 219.35,431.79 220.44,431.86 221.54,431.93 222.64,431.99 223.74,432.04 224.83,432.09 225.93,432.14 227.03,432.18 228.12,432.21 229.22,432.24 230.32,432.26 231.42,432.27 232.51,432.27 233.61,432.27 234.71,432.26 235.81,432.24 236.90,432.21 238.00,432.18 239.10,432.13 240.19,432.08 241.29,432.01 242.39,431.94 243.49,431.86 244.58,431.77 245.68,431.66 246.78,431.55 247.88,431.43 248.97,431.29 250.07,431.15 251.17,430.99 252.26,430.83 253.36,430.65 254.46,430.46 255.56,430.27 256.65,430.06 257.75,429.84 258.85,429.60 259.94,429.36 261.04,429.11 262.14,428.85 263.24,428.58 264.33,428.29 265.43,428.00 266.53,427.70 267.62,427.39 268.72,427.06 269.82,426.74 270.92,426.40 272.01,426.05 273.11,425.70 274.21,425.34 275.31,424.97 276.40,424.60 277.50,424.23 278.60,423.84 279.69,423.46 280.79,423.07 281.89,422.68 282.99,422.28 284.08,421.89 285.18,421.49 286.28,421.10 287.38,420.70 288.47,420.31 289.57,419.93 290.67,419.54 291.76,419.16 292.86,418.79 293.96,418.42 295.06,418.07 296.15,417.72 297.25,417.38 298.35,417.05 299.44,416.73 300.54,416.43 301.64,416.14 302.74,415.86 303.83,415.60 304.93,415.36 306.03,415.14 307.12,414.93 308.22,414.75 309.32,414.58 310.42,414.44 311.51,414.32 312.61,414.22 313.71,414.15 314.81,414.10 315.90,414.07 317.00,414.08 318.10,414.11 319.19,414.16 320.29,414.24 321.39,414.35 322.49,414.49 323.58,414.66 324.68,414.85 325.78,415.08 326.88,415.33 327.97,415.60 329.07,415.91 330.17,416.24 331.26,416.60 332.36,416.98 333.46,417.39 334.56,417.83 335.65,418.28 336.75,418.76 337.85,419.26 338.94,419.78 340.04,420.31 341.14,420.86 342.24,421.43 343.33,422.01 344.43,422.60 345.53,423.19 346.62,423.79 347.72,424.40 348.82,425.00 349.92,425.60 351.01,426.20 352.11,426.79 353.21,427.37 354.31,427.93 355.40,428.48 356.50,429.00 357.60,429.50 358.69,429.97 359.79,430.41 360.89,430.81 361.99,431.17 363.08,431.49 364.18,431.76 365.28,431.98 366.38,432.14 367.47,432.24 368.57,432.27 369.67,432.24 370.76,432.13 371.86,431.94 372.96,431.68 374.06,431.32 375.15,430.88 376.25,430.34 377.35,429.70 378.44,428.96 379.54,428.11 380.64,427.15 381.74,426.08 382.83,424.89 383.93,423.58 385.03,422.14 386.12,420.58 387.22,418.88 388.32,417.05 389.42,415.09 390.51,412.99 391.61,410.74 392.71,408.35 393.81,405.82 394.90,403.14 396.00,400.32 397.10,397.34 398.19,394.22 399.29,390.95 400.39,387.53 401.49,383.96 402.58,380.24 403.68,376.38 404.78,372.37 405.88,368.22 406.97,363.92 408.07,359.48 409.17,354.91 410.26,350.20 411.36,345.36 412.46,340.39 413.56,335.30 414.65,330.09 415.75,324.76 416.85,319.33 417.94,313.79 419.04,308.15 420.14,302.42 421.24,296.61 422.33,290.71 423.43,284.74 424.53,278.71 425.62,272.61 426.72,266.47 427.82,260.28 428.92,254.06 430.01,247.82 431.11,241.55 432.21,235.28 433.31,229.01 434.40,222.74 435.50,216.50 436.60,210.28 437.69,204.10 438.79,197.96 439.89,191.88 440.99,185.87 442.08,179.93 443.18,174.07 444.28,168.31 445.38,162.65 446.47,157.11 447.57,151.68 448.67,146.39 449.76,141.23 450.86,136.23 451.96,131.37 453.06,126.69 454.15,122.18 455.25,117.84 456.35,113.70 457.44,109.75 458.54,106.01 459.64,102.47 460.74,99.15 461.83,96.05 462.93,93.18 464.03,90.54 465.12,88.13 466.22,85.97 467.32,84.05 468.42,82.38 469.51,80.97 470.61,79.80 471.71,78.90 472.81,78.25 473.90,77.86 475.00,77.73 476.10,77.86 477.19,78.25 478.29,78.90 479.39,79.80 480.49,80.97 481.58,82.38 482.68,84.05 483.78,85.97 484.87,88.13 485.97,90.54 487.07,93.18 488.17,96.05 489.26,99.15 490.36,102.47 491.46,106.01 492.56,109.75 493.65,113.70 494.75,117.84 495.85,122.18 496.94,126.69 498.04,131.37 499.14,136.23 500.24,141.23 501.33,146.39 502.43,151.68 503.53,157.11 504.62,162.65 505.72,168.31 506.82,174.07 507.92,179.93 509.01,185.87 510.11,191.88 511.21,197.96 512.31,204.10 513.40,210.28 514.50,216.50 515.60,222.74 516.69,229.01 517.79,235.28 518.89,241.55 519.99,247.82 521.08,254.06 522.18,260.28 523.28,266.47 524.38,272.61 525.47,278.71 526.57,284.74 527.67,290.71 528.76,296.61 529.86,302.42 530.96,308.15 532.06,313.79 533.15,319.33 534.25,324.76 535.35,330.09 536.44,335.30 537.54,340.39 538.64,345.36 539.74,350.20 540.83,354.91 541.93,359.48 543.03,363.92 544.12,368.22 545.22,372.37 546.32,376.38 547.42,380.24 548.51,383.96 549.61,387.53 550.71,390.95 551.81,394.22 552.90,397.34 554.00,400.32 555.10,403.14 556.19,405.82 557.29,408.35 558.39,410.74 559.49,412.99 560.58,415.09 561.68,417.05 562.78,418.88 563.88,420.58 564.97,422.14 566.07,423.58 567.17,424.89 568.26,426.08 569.36,427.15 570.46,428.11 571.56,428.96 572.65,429.70 573.75,430.34 574.85,430.88 575.94,431.32 577.04,431.68 578.14,431.94 579.24,432.13 580.33,432.24 581.43,432.27 582.53,432.24 583.62,432.14 584.72,431.98 585.82,431.76 586.92,431.49 588.01,431.17 589.11,430.81 590.21,430.41 591.31,429.97 592.40,429.50 593.50,429.00 594.60,428.48 595.69,427.93 596.79,427.37 597.89,426.79 598.99,426.20 600.08,425.60 601.18,425.00 602.28,424.40 603.38,423.79 604.47,423.19 605.57,422.60 606.67,422.01 607.76,421.43 608.86,420.86 609.96,420.31 611.06,419.78 612.15,419.26 613.25,418.76 614.35,418.28 615.44,417.83 616.54,417.39 617.64,416.98 618.74,416.60 619.83,416.24 620.93,415.91 622.03,415.60 623.13,415.33 624.22,415.08 625.32,414.85 626.42,414.66 627.51,414.49 628.61,414.35 629.71,414.24 630.81,414.16 631.90,414.11 633.00,414.08 634.10,414.07 635.19,414.10 636.29,414.15 637.39,414.22 638.49,414.32 639.58,414.44 640.68,414.58 641.78,414.75 642.88,414.93 643.97,415.14 645.07,415.36 646.17,415.60 647.26,415.86 648.36,416.14 649.46,416.43 650.56,416.73 651.65,417.05 652.75,417.38 653.85,417.72 654.94,418.07 656.04,418.42 657.14,418.79 658.24,419.16 659.33,419.54 660.43,419.93 661.53,420.31 662.62,420.70 663.72,421.10 664.82,421.49 665.92,421.89 667.01,422.28 668.11,422.68 669.21,423.07 670.31,423.46 671.40,423.84 672.50,424.23 673.60,424.60 674.69,424.97 675.79,425.34 676.89,425.70 677.99,426.05 679.08,426.40 680.18,426.74 681.28,427.06 682.38,427.39 683.47,427.70 684.57,428.00 685.67,428.29 686.76,428.58 687.86,428.85 688.96,429.11 690.06,429.36 691.15,429.60 692.25,429.84 693.35,430.06 694.44,430.27 695.54,430.46 696.64,430.65 697.74,430.83 698.83,430.99 699.93,431.15 701.03,431.29 702.12,431.43 703.22,431.55 704.32,431.66 705.42,431.77 706.51,431.86 707.61,431.94 708.71,432.01 709.81,432.08 710.90,432.13 712.00,432.18 713.10,432.21 714.19,432.24 715.29,432.26 716.39,432.27 717.49,432.27 718.58,432.27 719.68,432.26 720.78,432.24 721.88,432.21 722.97,432.18 724.07,432.14 725.17,432.09 726.26,432.04 727.36,431.99 728.46,431.93 729.56,431.86 730.65,431.79 731.75,431.71 732.85,431.63 733.94,431.55 735.04,431.46 736.14,431.37 737.24,431.28 738.33,431.18 739.43,431.08 740.53,430.98 741.62,430.88 742.72,430.77 743.82,430.66 744.92,430.55 746.01,430.44 747.11,430.33 748.21,430.22 749.31,430.11 750.40,429.99 751.50,429.88 752.60,429.76 753.69,429.65 754.79,429.53 755.89,429.42 756.99,429.31 758.08,429.19 759.18,429.08 760.28,428.97 761.38,428.85 762.47,428.74 763.57,428.63 764.67,428.53 765.76,428.42 766.86,428.31 767.96,428.21 769.06,428.10 770.15,428.00 771.25,427.90 772.35,427.80 773.44,427.71 774.54,427.61 775.64,427.52 776.74,427.43 777.83,427.34 778.93,427.25 780.03,427.16 781.12,427.08 782.22,427.00 783.32,426.91 784.42,426.84 785.51,426.76 786.61,426.68 787.71,426.61 788.81,426.54 789.90,426.47 791.00,426.40 792.10,426.34 793.19,426.28 794.29,426.21 795.39,426.15 796.49,426.10 797.58,426.04 798.68,425.99 799.78,425.93 800.88,425.88 801.97,425.83 803.07,425.79 804.17,425.74 805.26,425.70 806.36,425.65 807.46,425.61 808.56,425.57 809.65,425.54 810.75,425.50 811.85,425.47 812.94,425.43 814.04,425.40 815.14,425.37 816.24,425.34 817.33,425.31 818.43,425.28 819.53,425.26 820.62,425.23 821.72,425.21 822.82,425.19 823.92,425.16 825.01,425.14 826.11,425.12 827.21,425.10 828.31,425.09 829.40,425.07 830.50,425.05 831.60,425.04 832.69,425.02 833.79,425.01 834.89,425.00 835.99,424.99 837.08,424.97 838.18,424.96 839.28,424.95 840.38,424.94 841.47,424.93 842.57,424.93 843.67,424.92 844.76,424.91 845.86,424.90 846.96,424.90 848.06,424.89 849.15,424.88 850.25,424.88 851.35,424.87 852.44,424.87 853.54,424.86 854.64,424.86 855.74,424.86 856.83,424.85 857.93,424.85 859.03,424.85 860.12,424.85 861.22,424.84 862.32,424.84 863.42,424.84 864.51,424.84 865.61,424.84 866.71,424.84 867.81,424.84 868.90,424.84 870.00,424.84" fill="none" stroke="#d62728" stroke-width="2"/>
<text x="100" y="56" font-family="Arial" font-size="13" fill="#1f77b4">model_normalized</text>
<text x="280" y="56" font-family="Arial" font-size="13" fill="#d62728">analytic_normalized</text>
</svg>