<svg xmlns="http://www.w3.org/2000/svg" width="760" height="520" viewBox="0 0 760 520">
<rect width="100%" height="100%" fill="#fff"/>
<text x="85" y="34" font-family="Arial" font-size="22" fill="#111">Radiating Phase-Steerability and Phase Ablation</text>
<line x1="85" y1="450" x2="730" y2="450" stroke="#222"/>
<line x1="85" y1="60" x2="85" y2="450" stroke="#222"/>
<text x="380.0" y="500" font-family="Arial" font-size="15" text-anchor="middle">Radiating phase-steerability P_R</text>
<text x="23" y="260.0" font-family="Arial" font-size="15" text-anchor="middle" transform="rotate(-90 23 260.0)">Phase-ablation RMSE (dB)</text>
<circle cx="508.75" cy="274.55" r="4" fill="#1f77b4" fill-opacity="0.72"/>
<circle cx="420.56" cy="224.73" r="4" fill="#1f77b4" fill-opacity="0.72"/>
<circle cx="640.40" cy="354.39" r="4" fill="#1f77b4" fill-opacity="0.72"/>
<circle cx="383.46" cy="250.02" r="4" fill="#1f77b4" fill-opacity="0.72"/>
<circle cx="482.53" cy="338.42" r="4" fill="#1f77b4" fill-opacity="0.72"/>
<circle cx="119.55" cy="404.46" r="4" fill="#1f77b4" fill-opacity="0.72"/>
<circle cx="466.21" cy="400.66" r="4" fill="#1f77b4" fill-opacity="0.72"/>
<circle cx="502.78" cy="358.48" r="4" fill="#1f77b4" fill-opacity="0.72"/>
<circle cx="523.29" cy="80.89" r="4" fill="#1f77b4" fill-opacity="0.72"/>
<circle cx="334.24" cy="389.54" r="4" fill="#1f77b4" fill-opacity="0.72"/>
<circle cx="597.08" cy="302.01" r="4" fill="#1f77b4" fill-opacity="0.72"/>
<circle cx="285.59" cy="159.21" r="4" fill="#1f77b4" fill-opacity="0.72"/>
<circle cx="382.29" cy="316.36" r="4" fill="#1f77b4" fill-opacity="0.72"/>
<circle cx="579.07" cy="335.74" r="4" fill="#1f77b4" fill-opacity="0.72"/>
<circle cx="465.09" cy="334.81" r="4" fill="#1f77b4" fill-opacity="0.72"/>
<circle cx="441.07" cy="307.89" r="4" fill="#1f77b4" fill-opacity="0.72"/>
<circle cx="388.45" cy="256.11" r="4" fill="#1f77b4" fill-opacity="0.72"/>
<circle cx="239.01" cy="355.14" r="4" fill="#1f77b4" fill-opacity="0.72"/>
<circle cx="599.78" cy="224.78" r="4" fill="#1f77b4" fill-opacity="0.72"/>
<circle cx="463.47" cy="316.29" r="4" fill="#1f77b4" fill-opacity="0.72"/>
<circle cx="562.12" cy="144.63" r="4" fill="#1f77b4" fill-opacity="0.72"/>
<circle cx="581.61" cy="104.80" r="4" fill="#1f77b4" fill-opacity="0.72"/>
<circle cx="448.78" cy="257.80" r="4" fill="#1f77b4" fill-opacity="0.72"/>
<circle cx="532.57" cy="242.41" r="4" fill="#1f77b4" fill-opacity="0.72"/>
<circle cx="524.70" cy="314.17" r="4" fill="#1f77b4" fill-opacity="0.72"/>
<circle cx="633.41" cy="262.72" r="4" fill="#1f77b4" fill-opacity="0.72"/>
<circle cx="340.92" cy="373.67" r="4" fill="#1f77b4" fill-opacity="0.72"/>
<circle cx="577.21" cy="207.36" r="4" fill="#1f77b4" fill-opacity="0.72"/>
<circle cx="313.59" cy="336.53" r="4" fill="#1f77b4" fill-opacity="0.72"/>
<circle cx="637.95" cy="241.63" r="4" fill="#1f77b4" fill-opacity="0.72"/>
<circle cx="695.45" cy="183.74" r="4" fill="#1f77b4" fill-opacity="0.72"/>
<circle cx="353.10" cy="355.17" r="4" fill="#1f77b4" fill-opacity="0.72"/>
<circle cx="444.73" cy="339.35" r="4" fill="#1f77b4" fill-opacity="0.72"/>
<circle cx="245.93" cy="387.71" r="4" fill="#1f77b4" fill-opacity="0.72"/>
<circle cx="439.07" cy="275.81" r="4" fill="#1f77b4" fill-opacity="0.72"/>
<circle cx="564.92" cy="265.10" r="4" fill="#1f77b4" fill-opacity="0.72"/>
<circle cx="458.61" cy="429.11" r="4" fill="#1f77b4" fill-opacity="0.72"/>
<circle cx="606.63" cy="303.32" r="4" fill="#1f77b4" fill-opacity="0.72"/>
<circle cx="369.52" cy="339.23" r="4" fill="#1f77b4" fill-opacity="0.72"/>
<circle cx="569.95" cy="247.59" r="4" fill="#1f77b4" fill-opacity="0.72"/>
<circle cx="534.21" cy="279.45" r="4" fill="#1f77b4" fill-opacity="0.72"/>
<circle cx="469.47" cy="324.26" r="4" fill="#1f77b4" fill-opacity="0.72"/>
<circle cx="325.48" cy="262.50" r="4" fill="#1f77b4" fill-opacity="0.72"/>
<circle cx="424.98" cy="279.49" r="4" fill="#1f77b4" fill-opacity="0.72"/>
<circle cx="639.91" cy="194.30" r="4" fill="#1f77b4" fill-opacity="0.72"/>
<circle cx="560.09" cy="242.85" r="4" fill="#1f77b4" fill-opacity="0.72"/>
<circle cx="525.62" cy="293.10" r="4" fill="#1f77b4" fill-opacity="0.72"/>
<circle cx="418.06" cy="354.22" r="4" fill="#1f77b4" fill-opacity="0.72"/>
<circle cx="576.99" cy="223.88" r="4" fill="#1f77b4" fill-opacity="0.72"/>
<circle cx="533.48" cy="207.71" r="4" fill="#1f77b4" fill-opacity="0.72"/>
</svg>