<svg xmlns="http://www.w3.org/2000/svg" width="820" height="680" viewBox="0 0 820 680">
<rect width="100%" height="100%" fill="#fff"/>
<text x="95" y="34" font-family="Arial" font-size="24" fill="#111">Mechanism Phase Diagram</text>
<rect x="95.00" y="578.40" width="23.10" height="22.10" fill="#f5f5f5"/>
<rect x="117.60" y="578.40" width="23.10" height="22.10" fill="#f5f5f5"/>
<rect x="140.20" y="578.40" width="23.10" height="22.10" fill="#f5f5f5"/>
<rect x="162.80" y="578.40" width="23.10" height="22.10" fill="#f5f4f4"/>
<rect x="185.40" y="578.40" width="23.10" height="22.10" fill="#f5f4f4"/>
<rect x="208.00" y="578.40" width="23.10" height="22.10" fill="#f4f4f4"/>
<rect x="230.60" y="578.40" width="23.10" height="22.10" fill="#f5f4f4"/>
<rect x="253.20" y="578.40" width="23.10" height="22.10" fill="#f5f4f4"/>
<rect x="275.80" y="578.40" width="23.10" height="22.10" fill="#f5f4f4"/>
<rect x="298.40" y="578.40" width="23.10" height="22.10" fill="#f5f4f4"/>
<rect x="321.00" y="578.40" width="23.10" height="22.10" fill="#f5f4f4"/>
<rect x="343.60" y="578.40" width="23.10" height="22.10" fill="#f5f4f4"/>
<rect x="366.20" y="578.40" width="23.10" height="22.10" fill="#f5f4f4"/>
<rect x="388.80" y="578.40" width="23.10" height="22.10" fill="#f5f4f4"/>
<rect x="411.40" y="578.40" width="23.10" height="22.10" fill="#f4f4f4"/>
<rect x="434.00" y="578.40" width="23.10" height="22.10" fill="#f5f4f4"/>
<rect x="456.60" y="578.40" width="23.10" height="22.10" fill="#f4f4f4"/>
<rect x="479.20" y="578.40" width="23.10" height="22.10" fill="#f5f4f4"/>
<rect x="501.80" y="578.40" width="23.10" height="22.10" fill="#f5f4f4"/>
<rect x="524.40" y="578.40" width="23.10" height="22.10" fill="#f5f4f4"/>
<rect x="547.00" y="578.40" width="23.10" height="22.10" fill="#f4f4f4"/>
<rect x="569.60" y="578.40" width="23.10" height="22.10" fill="#f5f4f4"/>
<rect x="592.20" y="578.40" width="23.10" height="22.10" fill="#f5f4f4"/>
<rect x="614.80" y="578.40" width="23.10" height="22.10" fill="#f5f4f4"/>
<rect x="637.40" y="578.40" width="23.10" height="22.10" fill="#f5f4f4"/>
<rect x="95.00" y="556.80" width="23.10" height="22.10" fill="#f5f5f5"/>
<rect x="117.60" y="556.80" width="23.10" height="22.10" fill="#f5f5f5"/>
<rect x="140.20" y="556.80" width="23.10" height="22.10" fill="#f5f5f5"/>
<rect x="162.80" y="556.80" width="23.10" height="22.10" fill="#f5f4f4"/>
<rect x="185.40" y="556.80" width="23.10" height="22.10" fill="#f5f4f4"/>
<rect x="208.00" y="556.80" width="23.10" height="22.10" fill="#f5f4f4"/>
<rect x="230.60" y="556.80" width="23.10" height="22.10" fill="#f5f4f4"/>
<rect x="253.20" y="556.80" width="23.10" height="22.10" fill="#f5f4f4"/>
<rect x="275.80" y="556.80" width="23.10" height="22.10" fill="#f4f4f4"/>
<rect x="298.40" y="556.80" width="23.10" height="22.10" fill="#f5f4f4"/>
<rect x="321.00" y="556.80" width="23.10" height="22.10" fill="#f5f4f4"/>
<rect x="343.60" y="556.80" width="23.10" height="22.10" fill="#f5f4f4"/>
<rect x="366.20" y="556.80" width="23.10" height="22.10" fill="#f5f4f4"/>
<rect x="388.80" y="556.80" width="23.10" height="22.10" fill="#f5f4f4"/>
<rect x="411.40" y="556.80" width="23.10" height="22.10" fill="#f5f4f4"/>
<rect x="434.00" y="556.80" width="23.10" height="22.10" fill="#f5f4f4"/>
<rect x="456.60" y="556.80" width="23.10" height="22.10" fill="#f5f4f4"/>
<rect x="479.20" y="556.80" width="23.10" height="22.10" fill="#f5f4f4"/>
<rect x="501.80" y="556.80" width="23.10" height="22.10" fill="#f5f4f4"/>
<rect x="524.40" y="556.80" width="23.10" height="22.10" fill="#f4f4f4"/>
<rect x="547.00" y="556.80" width="23.10" height="22.10" fill="#f5f4f4"/>
<rect x="569.60" y="556.80" width="23.10" height="22.10" fill="#f4f4f4"/>
<rect x="592.20" y="556.80" width="23.10" height="22.10" fill="#f5f4f4"/>
<rect x="614.80" y="556.80" width="23.10" height="22.10" fill="#f5f4f4"/>
<rect x="637.40" y="556.80" width="23.10" height="22.10" fill="#f5f4f4"/>
<rect x="95.00" y="535.20" width="23.10" height="22.10" fill="#f5f5f5"/>
<rect x="117.60" y="535.20" width="23.10" height="22.10" fill="#f5f5f5"/>
<rect x="140.20" y="535.20" width="23.10" height="22.10" fill="#f5f5f5"/>
<rect x="162.80" y="535.20" width="23.10" height="22.10" fill="#f5f4f4"/>
<rect x="185.40" y="535.20" width="23.10" height="22.10" fill="#f5f4f4"/>
<rect x="208.00" y="535.20" width="23.10" height="22.10" fill="#f5f4f4"/>
<rect x="230.60" y="535.20" width="23.10" height="22.10" fill="#f5f4f4"/>
<rect x="253.20" y="535.20" width="23.10" height="22.10" fill="#f5f4f4"/>
<rect x="275.80" y="535.20" width="23.10" height="22.10" fill="#f4f4f4"/>
<rect x="298.40" y="535.20" width="23.10" height="22.10" fill="#f5f4f4"/>
<rect x="321.00" y="535.20" width="23.10" height="22.10" fill="#f5f4f4"/>
<rect x="343.60" y="535.20" width="23.10" height="22.10" fill="#f5f4f4"/>
<rect x="366.20" y="535.20" width="23.10" height="22.10" fill="#f5f4f4"/>
<rect x="388.80" y="535.20" width="23.10" height="22.10" fill="#f5f4f4"/>
<rect x="411.40" y="535.20" width="23.10" height="22.10" fill="#f5f4f4"/>
<rect x="434.00" y="535.20" width="23.10" height="22.10" fill="#f5f4f4"/>
<rect x="456.60" y="535.20" width="23.10" height="22.10" fill="#f4f4f4"/>
<rect x="479.20" y="535.20" width="23.10" height="22.10" fill="#f5f4f4"/>
<rect x="501.80" y="535.20" width="23.10" height="22.10" fill="#f5f4f4"/>
<rect x="524.40" y="535.20" width="23.10" height="22.10" fill="#f5f4f4"/>
<rect x="547.00" y="535.20" width="23.10" height="22.10" fill="#f5f4f4"/>
<rect x="569.60" y="535.20" width="23.10" height="22.10" fill="#f5f4f4"/>
<rect x="592.20" y="535.20" width="23.10" height="22.10" fill="#f5f4f4"/>
<rect x="614.80" y="535.20" width="23.10" height="22.10" fill="#f5f4f4"/>
<rect x="637.40" y="535.20" width="23.10" height="22.10" fill="#f4f4f4"/>
<rect x="95.00" y="513.60" width="23.10" height="22.10" fill="#f5f5f5"/>
<rect x="117.60" y="513.60" width="23.10" height="22.10" fill="#f5f5f5"/>
<rect x="140.20" y="513.60" width="23.10" height="22.10" fill="#f5f5f5"/>
<rect x="162.80" y="513.60" width="23.10" height="22.10" fill="#f5f4f4"/>
<rect x="185.40" y="513.60" width="23.10" height="22.10" fill="#f5f4f4"/>
<rect x="208.00" y="513.60" width="23.10" height="22.10" fill="#f5f4f4"/>
<rect x="230.60" y="513.60" width="23.10" height="22.10" fill="#f4f4f4"/>
<rect x="253.20" y="513.60" width="23.10" height="22.10" fill="#f5f4f4"/>
<rect x="275.80" y="513.60" width="23.10" height="22.10" fill="#f4f4f4"/>
<rect x="298.40" y="513.60" width="23.10" height="22.10" fill="#f5f4f4"/>
<rect x="321.00" y="513.60" width="23.10" height="22.10" fill="#f5f4f4"/>
<rect x="343.60" y="513.60" width="23.10" height="22.10" fill="#f5f4f4"/>
<rect x="366.20" y="513.60" width="23.10" height="22.10" fill="#f5f4f4"/>
<rect x="388.80" y="513.60" width="23.10" height="22.10" fill="#f5f4f4"/>
<rect x="411.40" y="513.60" width="23.10" height="22.10" fill="#f5f4f4"/>
<rect x="434.00" y="513.60" width="23.10" height="22.10" fill="#f5f4f4"/>
<rect x="456.60" y="513.60" width="23.10" height="22.10" fill="#f5f4f4"/>
<rect x="479.20" y="513.60" width="23.10" height="22.10" fill="#f4f4f4"/>
<rect x="501.80" y="513.60" width="23.10" height="22.10" fill="#f4f4f4"/>
<rect x="524.40" y="513.60" width="23.10" height="22.10" fill="#f5f4f4"/>
<rect x="547.00" y="513.60" width="23.10" height="22.10" fill="#f5f4f4"/>
<rect x="569.60" y="513.60" width="23.10" height="22.10" fill="#f5f4f4"/>
<rect x="592.20" y="513.60" width="23.10" height="22.10" fill="#f5f4f4"/>
<rect x="614.80" y="513.60" width="23.10" height="22.10" fill="#f5f4f4"/>
<rect x="637.40" y="513.60" width="23.10" height="22.10" fill="#f5f4f4"/>
<rect x="95.00" y="492.00" width="23.10" height="22.10" fill="#f5f5f5"/>
<rect x="117.60" y="492.00" width="23.10" height="22.10" fill="#f5f5f5"/>
<rect x="140.20" y="492.00" width="23.10" height="22.10" fill="#f5f5f5"/>
<rect x="162.80" y="492.00" width="23.10" height="22.10" fill="#f5f4f4"/>
<rect x="185.40" y="492.00" width="23.10" height="22.10" fill="#f5f4f4"/>
<rect x="208.00" y="492.00" width="23.10" height="22.10" fill="#f4f4f4"/>
<rect x="230.60" y="492.00" width="23.10" height="22.10" fill="#f5f4f4"/>
<rect x="253.20" y="492.00" width="23.10" height="22.10" fill="#f5f4f4"/>
<rect x="275.80" y="492.00" width="23.10" height="22.10" fill="#f5f4f4"/>
<rect x="298.40" y="492.00" width="23.10" height="22.10" fill="#f4f4f4"/>
<rect x="321.00" y="492.00" width="23.10" height="22.10" fill="#f5f4f4"/>
<rect x="343.60" y="492.00" width="23.10" height="22.10" fill="#f5f4f4"/>
<rect x="366.20" y="492.00" width="23.10" height="22.10" fill="#f5f4f4"/>
<rect x="388.80" y="492.00" width="23.10" height="22.10" fill="#f5f4f4"/>
<rect x="411.40" y="492.00" width="23.10" height="22.10" fill="#f5f4f4"/>
<rect x="434.00" y="492.00" width="23.10" height="22.10" fill="#f5f4f4"/>
<rect x="456.60" y="492.00" width="23.10" height="22.10" fill="#f5f4f4"/>
<rect x="479.20" y="492.00" width="23.10" height="22.10" fill="#f5f4f4"/>
<rect x="501.80" y="492.00" width="23.10" height="22.10" fill="#f5f4f4"/>
<rect x="524.40" y="492.00" width="23.10" height="22.10" fill="#f4f4f4"/>
<rect x="547.00" y="492.00" width="23.10" height="22.10" fill="#f5f4f4"/>
<rect x="569.60" y="492.00" width="23.10" height="22.10" fill="#f5f4f4"/>
<rect x="592.20" y="492.00" width="23.10" height="22.10" fill="#f5f4f4"/>
<rect x="614.80" y="492.00" width="23.10" height="22.10" fill="#f5f4f4"/>
<rect x="637.40" y="492.00" width="23.10" height="22.10" fill="#f5f4f4"/>
<rect x="95.00" y="470.40" width="23.10" height="22.10" fill="#f5f5f5"/>
<rect x="117.60" y="470.40" width="23.10" height="22.10" fill="#f5f5f5"/>
<rect x="140.20" y="470.40" width="23.10" height="22.10" fill="#f5f5f5"/>
<rect x="162.80" y="470.40" width="23.10" height="22.10" fill="#f5f4f4"/>
<rect x="185.40" y="470.40" width="23.10" height="22.10" fill="#f5f4f4"/>
<rect x="208.00" y="470.40" width="23.10" height="22.10" fill="#f5f4f4"/>
<rect x="230.60" y="470.40" width="23.10" height="22.10" fill="#f5f4f4"/>
<rect x="253.20" y="470.40" width="23.10" height="22.10" fill="#f5f4f4"/>
<rect x="275.80" y="470.40" width="23.10" height="22.10" fill="#f5f4f4"/>
<rect x="298.40" y="470.40" width="23.10" height="22.10" fill="#f5f4f4"/>
<rect x="321.00" y="470.40" width="23.10" height="22.10" fill="#f5f4f4"/>
<rect x="343.60" y="470.40" width="23.10" height="22.10" fill="#f5f4f4"/>
<rect x="366.20" y="470.40" width="23.10" height="22.10" fill="#f5f4f4"/>
<rect x="388.80" y="470.40" width="23.10" height="22.10" fill="#f5f4f4"/>
<rect x="411.40" y="470.40" width="23.10" height="22.10" fill="#f5f4f4"/>
<rect x="434.00" y="470.40" width="23.10" height="22.10" fill="#f5f4f4"/>
<rect x="456.60" y="470.40" width="23.10" height="22.10" fill="#f5f4f4"/>
<rect x="479.20" y="470.40" width="23.10" height="22.10" fill="#f5f4f4"/>
<rect x="501.80" y="470.40" width="23.10" height="22.10" fill="#f5f4f4"/>
<rect x="524.40" y="470.40" width="23.10" height="22.10" fill="#f5f4f4"/>
<rect x="547.00" y="470.40" width="23.10" height="22.10" fill="#f5f4f4"/>
<rect x="569.60" y="470.40" width="23.10" height="22.10" fill="#f5f4f4"/>
<rect x="592.20" y="470.40" width="23.10" height="22.10" fill="#f5f4f4"/>
<rect x="614.80" y="470.40" width="23.10" height="22.10" fill="#f4f4f4"/>
<rect x="637.40" y="470.40" width="23.10" height="22.10" fill="#f5f4f4"/>
<rect x="95.00" y="448.80" width="23.10" height="22.10" fill="#f5f5f5"/>
<rect x="117.60" y="448.80" width="23.10" height="22.10" fill="#f5f5f5"/>
<rect x="140.20" y="448.80" width="23.10" height="22.10" fill="#f5f5f5"/>
<rect x="162.80" y="448.80" width="23.10" height="22.10" fill="#f5f4f4"/>
<rect x="185.40" y="448.80" width="23.10" height="22.10" fill="#f5f4f4"/>
<rect x="208.00" y="448.80" width="23.10" height="22.10" fill="#f5f4f4"/>
<rect x="230.60" y="448.80" width="23.10" height="22.10" fill="#f5f4f4"/>
<rect x="253.20" y="448.80" width="23.10" height="22.10" fill="#f4f4f4"/>
<rect x="275.80" y="448.80" width="23.10" height="22.10" fill="#f5f4f4"/>
<rect x="298.40" y="448.80" width="23.10" height="22.10" fill="#f5f4f4"/>
<rect x="321.00" y="448.80" width="23.10" height="22.10" fill="#f5f4f4"/>
<rect x="343.60" y="448.80" width="23.10" height="22.10" fill="#f5f4f4"/>
<rect x="366.20" y="448.80" width="23.10" height="22.10" fill="#f5f4f4"/>
<rect x="388.80" y="448.80" width="23.10" height="22.10" fill="#f5f4f4"/>
<rect x="411.40" y="448.80" width="23.10" height="22.10" fill="#f5f4f4"/>
<rect x="434.00" y="448.80" width="23.10" height="22.10" fill="#f5f4f4"/>
<rect x="456.60" y="448.80" width="23.10" height="22.10" fill="#f5f4f4"/>
<rect x="479.20" y="448.80" width="23.10" height="22.10" fill="#f5f4f4"/>
<rect x="501.80" y="448.80" width="23.10" height="22.10" fill="#f4f4f4"/>
<rect x="524.40" y="448.80" width="23.10" height="22.10" fill="#f5f4f4"/>
<rect x="547.00" y="448.80" width="23.10" height="22.10" fill="#f5f4f4"/>
<rect x="569.60" y="448.80" width="23.10" height="22.10" fill="#f5f4f4"/>
<rect x="592.20" y="448.80" width="23.10" height="22.10" fill="#f5f4f3"/>
<rect x="614.80" y="448.80" width="23.10" height="22.10" fill="#f5f4f3"/>
<rect x="637.40" y="448.80" width="23.10" height="22.10" fill="#f5f4f3"/>
<rect x="95.00" y="427.20" width="23.10" height="22.10" fill="#f5f5f5"/>
<rect x="117.60" y="427.20" width="23.10" height="22.10" fill="#f5f5f5"/>
<rect x="140.20" y="427.20" width="23.10" height="22.10" fill="#f5f5f5"/>
<rect x="162.80" y="427.20" width="23.10" height="22.10" fill="#f5f4f4"/>
<rect x="185.40" y="427.20" width="23.10" height="22.10" fill="#f5f4f4"/>
<rect x="208.00" y="427.20" width="23.10" height="22.10" fill="#f5f4f4"/>
<rect x="230.60" y="427.20" width="23.10" height="22.10" fill="#f4f4f4"/>
<rect x="253.20" y="427.20" width="23.10" height="22.10" fill="#f4f4f4"/>
<rect x="275.80" y="427.20" width="23.10" height="22.10" fill="#f5f4f4"/>
<rect x="298.40" y="427.20" width="23.10" height="22.10" fill="#f4f4f4"/>
<rect x="321.00" y="427.20" width="23.10" height="22.10" fill="#f5f4f4"/>
<rect x="343.60" y="427.20" width="23.10" height="22.10" fill="#f5f4f4"/>
<rect x="366.20" y="427.20" width="23.10" height="22.10" fill="#f5f4f4"/>
<rect x="388.80" y="427.20" width="23.10" height="22.10" fill="#f5f4f4"/>
<rect x="411.40" y="427.20" width="23.10" height="22.10" fill="#f5f4f4"/>
<rect x="434.00" y="427.20" width="23.10" height="22.10" fill="#f5f3f3"/>
<rect x="456.60" y="427.20" width="23.10" height="22.10" fill="#f5f3f3"/>
<rect x="479.20" y="427.20" width="23.10" height="22.10" fill="#f5f3f3"/>
<rect x="501.80" y="427.20" width="23.10" height="22.10" fill="#f5f3f3"/>
<rect x="524.40" y="427.20" width="23.10" height="22.10" fill="#f4f3f2"/>
<rect x="547.00" y="427.20" width="23.10" height="22.10" fill="#f5f3f2"/>
<rect x="569.60" y="427.20" width="23.10" height="22.10" fill="#f5f3f2"/>
<rect x="592.20" y="427.20" width="23.10" height="22.10" fill="#f5f3f2"/>
<rect x="614.80" y="427.20" width="23.10" height="22.10" fill="#f5f3f2"/>
<rect x="637.40" y="427.20" width="23.10" height="22.10" fill="#f5f2f2"/>
<rect x="95.00" y="405.60" width="23.10" height="22.10" fill="#f5f5f5"/>
<rect x="117.60" y="405.60" width="23.10" height="22.10" fill="#f5f5f5"/>
<rect x="140.20" y="405.60" width="23.10" height="22.10" fill="#f5f5f5"/>
<rect x="162.80" y="405.60" width="23.10" height="22.10" fill="#f5f4f4"/>
<rect x="185.40" y="405.60" width="23.10" height="22.10" fill="#f5f4f4"/>
<rect x="208.00" y="405.60" width="23.10" height="22.10" fill="#f5f4f4"/>
<rect x="230.60" y="405.60" width="23.10" height="22.10" fill="#f4f4f4"/>
<rect x="253.20" y="405.60" width="23.10" height="22.10" fill="#f5f4f4"/>
<rect x="275.80" y="405.60" width="23.10" height="22.10" fill="#f5f4f4"/>
<rect x="298.40" y="405.60" width="23.10" height="22.10" fill="#f5f4f4"/>
<rect x="321.00" y="405.60" width="23.10" height="22.10" fill="#f5f4f4"/>
<rect x="343.60" y="405.60" width="23.10" height="22.10" fill="#f5f4f4"/>
<rect x="366.20" y="405.60" width="23.10" height="22.10" fill="#f5f4f4"/>
<rect x="388.80" y="405.60" width="23.10" height="22.10" fill="#f5f3f3"/>
<rect x="411.40" y="405.60" width="23.10" height="22.10" fill="#f5f3f3"/>
<rect x="434.00" y="405.60" width="23.10" height="22.10" fill="#f5f2f2"/>
<rect x="456.60" y="405.60" width="23.10" height="22.10" fill="#f5f2f1"/>
<rect x="479.20" y="405.60" width="23.10" height="22.10" fill="#f5f1f1"/>
<rect x="501.80" y="405.60" width="23.10" height="22.10" fill="#f5f1f0"/>
<rect x="524.40" y="405.60" width="23.10" height="22.10" fill="#f5f1f0"/>
<rect x="547.00" y="405.60" width="23.10" height="22.10" fill="#f5f0f0"/>
<rect x="569.60" y="405.60" width="23.10" height="22.10" fill="#f5f0f0"/>
<rect x="592.20" y="405.60" width="23.10" height="22.10" fill="#f5f0f0"/>
<rect x="614.80" y="405.60" width="23.10" height="22.10" fill="#f5f0f0"/>
<rect x="637.40" y="405.60" width="23.10" height="22.10" fill="#f5f0f0"/>
<rect x="95.00" y="384.00" width="23.10" height="22.10" fill="#f5f5f5"/>
<rect x="117.60" y="384.00" width="23.10" height="22.10" fill="#f5f5f5"/>
<rect x="140.20" y="384.00" width="23.10" height="22.10" fill="#f5f5f5"/>
<rect x="162.80" y="384.00" width="23.10" height="22.10" fill="#f5f4f4"/>
<rect x="185.40" y="384.00" width="23.10" height="22.10" fill="#f5f4f4"/>
<rect x="208.00" y="384.00" width="23.10" height="22.10" fill="#f5f4f4"/>
<rect x="230.60" y="384.00" width="23.10" height="22.10" fill="#f5f4f4"/>
<rect x="253.20" y="384.00" width="23.10" height="22.10" fill="#f5f4f4"/>
<rect x="275.80" y="384.00" width="23.10" height="22.10" fill="#f5f4f4"/>
<rect x="298.40" y="384.00" width="23.10" height="22.10" fill="#f5f4f4"/>
<rect x="321.00" y="384.00" width="23.10" height="22.10" fill="#f5f4f4"/>
<rect x="343.60" y="384.00" width="23.10" height="22.10" fill="#f5f4f4"/>
<rect x="366.20" y="384.00" width="23.10" height="22.10" fill="#f5f3f3"/>
<rect x="388.80" y="384.00" width="23.10" height="22.10" fill="#f5f2f2"/>
<rect x="411.40" y="384.00" width="23.10" height="22.10" fill="#f5f1f0"/>
<rect x="434.00" y="384.00" width="23.10" height="22.10" fill="#f5efef"/>
<rect x="456.60" y="384.00" width="23.10" height="22.10" fill="#f5eeee"/>
<rect x="479.20" y="384.00" width="23.10" height="22.10" fill="#f5edec"/>
<rect x="501.80" y="384.00" width="23.10" height="22.10" fill="#f5edec"/>
<rect x="524.40" y="384.00" width="23.10" height="22.10" fill="#f5eceb"/>
<rect x="547.00" y="384.00" width="23.10" height="22.10" fill="#f5eceb"/>
<rect x="569.60" y="384.00" width="23.10" height="22.10" fill="#f5ebea"/>
<rect x="592.20" y="384.00" width="23.10" height="22.10" fill="#f4ebea"/>
<rect x="614.80" y="384.00" width="23.10" height="22.10" fill="#f5ebea"/>
<rect x="637.40" y="384.00" width="23.10" height="22.10" fill="#f5ebea"/>
<rect x="95.00" y="362.40" width="23.10" height="22.10" fill="#f5f5f5"/>
<rect x="117.60" y="362.40" width="23.10" height="22.10" fill="#f5f5f5"/>
<rect x="140.20" y="362.40" width="23.10" height="22.10" fill="#f5f5f5"/>
<rect x="162.80" y="362.40" width="23.10" height="22.10" fill="#f5f4f4"/>
<rect x="185.40" y="362.40" width="23.10" height="22.10" fill="#f5f4f4"/>
<rect x="208.00" y="362.40" width="23.10" height="22.10" fill="#f5f4f4"/>
<rect x="230.60" y="362.40" width="23.10" height="22.10" fill="#f5f4f4"/>
<rect x="253.20" y="362.40" width="23.10" height="22.10" fill="#f5f4f4"/>
<rect x="275.80" y="362.40" width="23.10" height="22.10" fill="#f5f4f4"/>
<rect x="298.40" y="362.40" width="23.10" height="22.10" fill="#f5f4f4"/>
<rect x="321.00" y="362.40" width="23.10" height="22.10" fill="#f5f4f4"/>
<rect x="343.60" y="362.40" width="23.10" height="22.10" fill="#f5f3f3"/>
<rect x="366.20" y="362.40" width="23.10" height="22.10" fill="#f5f2f1"/>
<rect x="388.80" y="362.40" width="23.10" height="22.10" fill="#f5efef"/>
<rect x="411.40" y="362.40" width="23.10" height="22.10" fill="#f5edec"/>
<rect x="434.00" y="362.40" width="23.10" height="22.10" fill="#f5eae9"/>
<rect x="456.60" y="362.40" width="23.10" height="22.10" fill="#f4e7e6"/>
<rect x="479.20" y="362.40" width="23.10" height="22.10" fill="#f5e5e3"/>
<rect x="501.80" y="362.40" width="23.10" height="22.10" fill="#f5e3e1"/>
<rect x="524.40" y="362.40" width="23.10" height="22.10" fill="#f5e2e0"/>
<rect x="547.00" y="362.40" width="23.10" height="22.10" fill="#f5e1de"/>
<rect x="569.60" y="362.40" width="23.10" height="22.10" fill="#f5e0de"/>
<rect x="592.20" y="362.40" width="23.10" height="22.10" fill="#f5e0dd"/>
<rect x="614.80" y="362.40" width="23.10" height="22.10" fill="#f5dfdd"/>
<rect x="637.40" y="362.40" width="23.10" height="22.10" fill="#f5dfdc"/>
<rect x="95.00" y="340.80" width="23.10" height="22.10" fill="#f5f5f5"/>
<rect x="117.60" y="340.80" width="23.10" height="22.10" fill="#f5f5f5"/>
<rect x="140.20" y="340.80" width="23.10" height="22.10" fill="#f5f5f5"/>
<rect x="162.80" y="340.80" width="23.10" height="22.10" fill="#f5f4f4"/>
<rect x="185.40" y="340.80" width="23.10" height="22.10" fill="#f5f4f4"/>
<rect x="208.00" y="340.80" width="23.10" height="22.10" fill="#f5f4f4"/>
<rect x="230.60" y="340.80" width="23.10" height="22.10" fill="#f5f4f4"/>
<rect x="253.20" y="340.80" width="23.10" height="22.10" fill="#f5f4f4"/>
<rect x="275.80" y="340.80" width="23.10" height="22.10" fill="#f5f4f4"/>
<rect x="298.40" y="340.80" width="23.10" height="22.10" fill="#f5f4f4"/>
<rect x="321.00" y="340.80" width="23.10" height="22.10" fill="#f5f3f3"/>
<rect x="343.60" y="340.80" width="23.10" height="22.10" fill="#f5f2f1"/>
<rect x="366.20" y="340.80" width="23.10" height="22.10" fill="#f5efee"/>
<rect x="388.80" y="340.80" width="23.10" height="22.10" fill="#f5eae9"/>
<rect x="411.40" y="340.80" width="23.10" height="22.10" fill="#f5e5e3"/>
<rect x="434.00" y="340.80" width="23.10" height="22.10" fill="#f5dfdc"/>
<rect x="456.60" y="340.80" width="23.10" height="22.10" fill="#f5d9d5"/>
<rect x="479.20" y="340.80" width="23.10" height="22.10" fill="#f5d3cf"/>
<rect x="501.80" y="340.80" width="23.10" height="22.10" fill="#f5ceca"/>
<rect x="524.40" y="340.80" width="23.10" height="22.10" fill="#f5cac5"/>
<rect x="547.00" y="340.80" width="23.10" height="22.10" fill="#f5c7c1"/>
<rect x="569.60" y="340.80" width="23.10" height="22.10" fill="#f5c4bf"/>
<rect x="592.20" y="340.80" width="23.10" height="22.10" fill="#f5c2bd"/>
<rect x="614.80" y="340.80" width="23.10" height="22.10" fill="#f5c1bb"/>
<rect x="637.40" y="340.80" width="23.10" height="22.10" fill="#f5c0ba"/>
<rect x="95.00" y="319.20" width="23.10" height="22.10" fill="#f5f5f5"/>
<rect x="117.60" y="319.20" width="23.10" height="22.10" fill="#f5f5f5"/>
<rect x="140.20" y="319.20" width="23.10" height="22.10" fill="#f5f5f5"/>
<rect x="162.80" y="319.20" width="23.10" height="22.10" fill="#f5f4f4"/>
<rect x="185.40" y="319.20" width="23.10" height="22.10" fill="#f5f4f4"/>
<rect x="208.00" y="319.20" width="23.10" height="22.10" fill="#f4f4f4"/>
<rect x="230.60" y="319.20" width="23.10" height="22.10" fill="#f4f4f4"/>
<rect x="253.20" y="319.20" width="23.10" height="22.10" fill="#f5f4f4"/>
<rect x="275.80" y="319.20" width="23.10" height="22.10" fill="#f5f4f4"/>
<rect x="298.40" y="319.20" width="23.10" height="22.10" fill="#f5f4f4"/>
<rect x="321.00" y="319.20" width="23.10" height="22.10" fill="#f5f2f2"/>
<rect x="343.60" y="319.20" width="23.10" height="22.10" fill="#f5efee"/>
<rect x="366.20" y="319.20" width="23.10" height="22.10" fill="#f5e9e8"/>
<rect x="388.80" y="319.20" width="23.10" height="22.10" fill="#f5e1df"/>
<rect x="411.40" y="319.20" width="23.10" height="22.10" fill="#f5d8d4"/>
<rect x="434.00" y="319.20" width="23.10" height="22.10" fill="#f5cdc9"/>
<rect x="456.60" y="319.20" width="23.10" height="22.10" fill="#f5c2bd"/>
<rect x="479.20" y="319.20" width="23.10" height="22.10" fill="#f5b8b1"/>
<rect x="501.80" y="319.20" width="23.10" height="22.10" fill="#f5ada5"/>
<rect x="524.40" y="319.20" width="23.10" height="22.10" fill="#f5a49a"/>
<rect x="547.00" y="319.20" width="23.10" height="22.10" fill="#f59a90"/>
<rect x="569.60" y="319.20" width="23.10" height="22.10" fill="#f59286"/>
<rect x="592.20" y="319.20" width="23.10" height="22.10" fill="#f58a7e"/>
<rect x="614.80" y="319.20" width="23.10" height="22.10" fill="#f58376"/>
<rect x="637.40" y="319.20" width="23.10" height="22.10" fill="#f57d6f"/>
<rect x="95.00" y="297.60" width="23.10" height="22.10" fill="#f5f5f5"/>
<rect x="117.60" y="297.60" width="23.10" height="22.10" fill="#f5f5f5"/>
<rect x="140.20" y="297.60" width="23.10" height="22.10" fill="#f5f5f5"/>
<rect x="162.80" y="297.60" width="23.10" height="22.10" fill="#f5f4f4"/>
<rect x="185.40" y="297.60" width="23.10" height="22.10" fill="#f5f4f4"/>
<rect x="208.00" y="297.60" width="23.10" height="22.10" fill="#f5f4f4"/>
<rect x="230.60" y="297.60" width="23.10" height="22.10" fill="#f5f4f4"/>
<rect x="253.20" y="297.60" width="23.10" height="22.10" fill="#f5f4f4"/>
<rect x="275.80" y="297.60" width="23.10" height="22.10" fill="#f5f4f4"/>
<rect x="298.40" y="297.60" width="23.10" height="22.10" fill="#f4f3f3"/>
<rect x="321.00" y="297.60" width="23.10" height="22.10" fill="#f5f0ef"/>
<rect x="343.60" y="297.60" width="23.10" height="22.10" fill="#f5eae8"/>
<rect x="366.20" y="297.60" width="23.10" height="22.10" fill="#f5e1de"/>
<rect x="388.80" y="297.60" width="23.10" height="22.10" fill="#f5d5d1"/>
<rect x="411.40" y="297.60" width="23.10" height="22.10" fill="#f5c8c3"/>
<rect x="434.00" y="297.60" width="23.10" height="22.10" fill="#f5bcb5"/>
<rect x="456.60" y="297.60" width="23.10" height="22.10" fill="#f5b0a8"/>
<rect x="479.20" y="297.60" width="23.10" height="22.10" fill="#f5a79e"/>
<rect x="501.80" y="297.60" width="23.10" height="22.10" fill="#f59f95"/>
<rect x="524.40" y="297.60" width="23.10" height="22.10" fill="#f5998e"/>
<rect x="547.00" y="297.60" width="23.10" height="22.10" fill="#f59489"/>
<rect x="569.60" y="297.60" width="23.10" height="22.10" fill="#f59084"/>
<rect x="592.20" y="297.60" width="23.10" height="22.10" fill="#f58c80"/>
<rect x="614.80" y="297.60" width="23.10" height="22.10" fill="#f5897c"/>
<rect x="637.40" y="297.60" width="23.10" height="22.10" fill="#f58679"/>
<rect x="95.00" y="276.00" width="23.10" height="22.10" fill="#f5f5f5"/>
<rect x="117.60" y="276.00" width="23.10" height="22.10" fill="#f5f5f5"/>
<rect x="140.20" y="276.00" width="23.10" height="22.10" fill="#f5f5f5"/>
<rect x="162.80" y="276.00" width="23.10" height="22.10" fill="#f5f4f4"/>
<rect x="185.40" y="276.00" width="23.10" height="22.10" fill="#f5f4f4"/>
<rect x="208.00" y="276.00" width="23.10" height="22.10" fill="#f4f4f4"/>
<rect x="230.60" y="276.00" width="23.10" height="22.10" fill="#f5f4f4"/>
<rect x="253.20" y="276.00" width="23.10" height="22.10" fill="#f5f4f4"/>
<rect x="275.80" y="276.00" width="23.10" height="22.10" fill="#f5f4f4"/>
<rect x="298.40" y="276.00" width="23.10" height="22.10" fill="#f4f2f1"/>
<rect x="321.00" y="276.00" width="23.10" height="22.10" fill="#f5eceb"/>
<rect x="343.60" y="276.00" width="23.10" height="22.10" fill="#f5e3e1"/>
<rect x="366.20" y="276.00" width="23.10" height="22.10" fill="#f5d6d2"/>
<rect x="388.80" y="276.00" width="23.10" height="22.10" fill="#f5c7c2"/>
<rect x="411.40" y="276.00" width="23.10" height="22.10" fill="#f5b7b0"/>
<rect x="434.00" y="276.00" width="23.10" height="22.10" fill="#f5a9a0"/>
<rect x="456.60" y="276.00" width="23.10" height="22.10" fill="#f59c91"/>
<rect x="479.20" y="276.00" width="23.10" height="22.10" fill="#f59085"/>
<rect x="501.80" y="276.00" width="23.10" height="22.10" fill="#f5877a"/>
<rect x="524.40" y="276.00" width="23.10" height="22.10" fill="#f57f71"/>
<rect x="547.00" y="276.00" width="23.10" height="22.10" fill="#f5786a"/>
<rect x="569.60" y="276.00" width="23.10" height="22.10" fill="#f57363"/>
<rect x="592.20" y="276.00" width="23.10" height="22.10" fill="#f56e5e"/>
<rect x="614.80" y="276.00" width="23.10" height="22.10" fill="#f56959"/>
<rect x="637.40" y="276.00" width="23.10" height="22.10" fill="#f56655"/>
<rect x="95.00" y="254.40" width="23.10" height="22.10" fill="#f5f5f5"/>
<rect x="117.60" y="254.40" width="23.10" height="22.10" fill="#f5f5f5"/>
<rect x="140.20" y="254.40" width="23.10" height="22.10" fill="#f5f5f5"/>
<rect x="162.80" y="254.40" width="23.10" height="22.10" fill="#f5f4f4"/>
<rect x="185.40" y="254.40" width="23.10" height="22.10" fill="#f5f4f4"/>
<rect x="208.00" y="254.40" width="23.10" height="22.10" fill="#f5f4f4"/>
<rect x="230.60" y="254.40" width="23.10" height="22.10" fill="#f5f4f4"/>
<rect x="253.20" y="254.40" width="23.10" height="22.10" fill="#f4f4f4"/>
<rect x="275.80" y="254.40" width="23.10" height="22.10" fill="#f5f4f3"/>
<rect x="298.40" y="254.40" width="23.10" height="22.10" fill="#f5f0f0"/>
<rect x="321.00" y="254.40" width="23.10" height="22.10" fill="#f5e9e7"/>
<rect x="343.60" y="254.40" width="23.10" height="22.10" fill="#f5ddda"/>
<rect x="366.20" y="254.40" width="23.10" height="22.10" fill="#f5cdc9"/>
<rect x="388.80" y="254.40" width="23.10" height="22.10" fill="#f5bcb5"/>
<rect x="411.40" y="254.40" width="23.10" height="22.10" fill="#f5aba2"/>
<rect x="434.00" y="254.40" width="23.10" height="22.10" fill="#f59b90"/>
<rect x="456.60" y="254.40" width="23.10" height="22.10" fill="#f58d81"/>
<rect x="479.20" y="254.40" width="23.10" height="22.10" fill="#f58274"/>
<rect x="501.80" y="254.40" width="23.10" height="22.10" fill="#f5786a"/>
<rect x="524.40" y="254.40" width="23.10" height="22.10" fill="#f57061"/>
<rect x="547.00" y="254.40" width="23.10" height="22.10" fill="#f56a5a"/>
<rect x="569.60" y="254.40" width="23.10" height="22.10" fill="#f56554"/>
<rect x="592.20" y="254.40" width="23.10" height="22.10" fill="#f5604e"/>
<rect x="614.80" y="254.40" width="23.10" height="22.10" fill="#f55c4a"/>
<rect x="637.40" y="254.40" width="23.10" height="22.10" fill="#f55846"/>
<rect x="95.00" y="232.80" width="23.10" height="22.10" fill="#f5f5f5"/>
<rect x="117.60" y="232.80" width="23.10" height="22.10" fill="#f5f5f5"/>
<rect x="140.20" y="232.80" width="23.10" height="22.10" fill="#f5f5f5"/>
<rect x="162.80" y="232.80" width="23.10" height="22.10" fill="#f5f4f4"/>
<rect x="185.40" y="232.80" width="23.10" height="22.10" fill="#f5f4f4"/>
<rect x="208.00" y="232.80" width="23.10" height="22.10" fill="#f4f4f4"/>
<rect x="230.60" y="232.80" width="23.10" height="22.10" fill="#f5f4f4"/>
<rect x="253.20" y="232.80" width="23.10" height="22.10" fill="#f5f4f4"/>
<rect x="275.80" y="232.80" width="23.10" height="22.10" fill="#f4f4f3"/>
<rect x="298.40" y="232.80" width="23.10" height="22.10" fill="#f5f1f0"/>
<rect x="321.00" y="232.80" width="23.10" height="22.10" fill="#f5e9e8"/>
<rect x="343.60" y="232.80" width="23.10" height="22.10" fill="#f5dedb"/>
<rect x="366.20" y="232.80" width="23.10" height="22.10" fill="#f5cec9"/>
<rect x="388.80" y="232.80" width="23.10" height="22.10" fill="#f5bcb6"/>
<rect x="411.40" y="232.80" width="23.10" height="22.10" fill="#f5aba2"/>
<rect x="434.00" y="232.80" width="23.10" height="22.10" fill="#f59a8f"/>
<rect x="456.60" y="232.80" width="23.10" height="22.10" fill="#f58b7f"/>
<rect x="479.20" y="232.80" width="23.10" height="22.10" fill="#f57f71"/>
<rect x="501.80" y="232.80" width="23.10" height="22.10" fill="#f57465"/>
<rect x="524.40" y="232.80" width="23.10" height="22.10" fill="#f56a5a"/>
<rect x="547.00" y="232.80" width="23.10" height="22.10" fill="#f56251"/>
<rect x="569.60" y="232.80" width="23.10" height="22.10" fill="#f55b49"/>
<rect x="592.20" y="232.80" width="23.10" height="22.10" fill="#f55542"/>
<rect x="614.80" y="232.80" width="23.10" height="22.10" fill="#f54f3c"/>
<rect x="637.40" y="232.80" width="23.10" height="22.10" fill="#f54b37"/>
<rect x="95.00" y="211.20" width="23.10" height="22.10" fill="#f5f5f5"/>
<rect x="117.60" y="211.20" width="23.10" height="22.10" fill="#f5f5f5"/>
<rect x="140.20" y="211.20" width="23.10" height="22.10" fill="#f5f5f5"/>
<rect x="162.80" y="211.20" width="23.10" height="22.10" fill="#f5f4f4"/>
<rect x="185.40" y="211.20" width="23.10" height="22.10" fill="#f4f4f4"/>
<rect x="208.00" y="211.20" width="23.10" height="22.10" fill="#f5f4f4"/>
<rect x="230.60" y="211.20" width="23.10" height="22.10" fill="#f5f4f4"/>
<rect x="253.20" y="211.20" width="23.10" height="22.10" fill="#f5f4f4"/>
<rect x="275.80" y="211.20" width="23.10" height="22.10" fill="#f5f4f4"/>
<rect x="298.40" y="211.20" width="23.10" height="22.10" fill="#f5f2f1"/>
<rect x="321.00" y="211.20" width="23.10" height="22.10" fill="#f5edec"/>
<rect x="343.60" y="211.20" width="23.10" height="22.10" fill="#f5e4e2"/>
<rect x="366.20" y="211.20" width="23.10" height="22.10" fill="#f5d9d6"/>
<rect x="388.80" y="211.20" width="23.10" height="22.10" fill="#f5ccc7"/>
<rect x="411.40" y="211.20" width="23.10" height="22.10" fill="#f5bfb8"/>
<rect x="434.00" y="211.20" width="23.10" height="22.10" fill="#f4b2ab"/>
<rect x="456.60" y="211.20" width="23.10" height="22.10" fill="#f5a79e"/>
<rect x="479.20" y="211.20" width="23.10" height="22.10" fill="#f59e93"/>
<rect x="501.80" y="211.20" width="23.10" height="22.10" fill="#f5958a"/>
<rect x="524.40" y="211.20" width="23.10" height="22.10" fill="#f58f83"/>
<rect x="547.00" y="211.20" width="23.10" height="22.10" fill="#f5897c"/>
<rect x="569.60" y="211.20" width="23.10" height="22.10" fill="#f58476"/>
<rect x="592.20" y="211.20" width="23.10" height="22.10" fill="#f57f71"/>
<rect x="614.80" y="211.20" width="23.10" height="22.10" fill="#f57b6d"/>
<rect x="637.40" y="211.20" width="23.10" height="22.10" fill="#f57869"/>
<rect x="95.00" y="189.60" width="23.10" height="22.10" fill="#f5f5f5"/>
<rect x="117.60" y="189.60" width="23.10" height="22.10" fill="#f5f5f5"/>
<rect x="140.20" y="189.60" width="23.10" height="22.10" fill="#f5f5f5"/>
<rect x="162.80" y="189.60" width="23.10" height="22.10" fill="#f5f4f4"/>
<rect x="185.40" y="189.60" width="23.10" height="22.10" fill="#f5f4f4"/>
<rect x="208.00" y="189.60" width="23.10" height="22.10" fill="#f5f4f4"/>
<rect x="230.60" y="189.60" width="23.10" height="22.10" fill="#f5f4f4"/>
<rect x="253.20" y="189.60" width="23.10" height="22.10" fill="#f5f4f4"/>
<rect x="275.80" y="189.60" width="23.10" height="22.10" fill="#f4f4f3"/>
<rect x="298.40" y="189.60" width="23.10" height="22.10" fill="#f5f0f0"/>
<rect x="321.00" y="189.60" width="23.10" height="22.10" fill="#f5e9e8"/>
<rect x="343.60" y="189.60" width="23.10" height="22.10" fill="#f5dddb"/>
<rect x="366.20" y="189.60" width="23.10" height="22.10" fill="#f5ceca"/>
<rect x="388.80" y="189.60" width="23.10" height="22.10" fill="#f5bdb7"/>
<rect x="411.40" y="189.60" width="23.10" height="22.10" fill="#f5aca4"/>
<rect x="434.00" y="189.60" width="23.10" height="22.10" fill="#f59c92"/>
<rect x="456.60" y="189.60" width="23.10" height="22.10" fill="#f58e82"/>
<rect x="479.20" y="189.60" width="23.10" height="22.10" fill="#f58275"/>
<rect x="501.80" y="189.60" width="23.10" height="22.10" fill="#f57769"/>
<rect x="524.40" y="189.60" width="23.10" height="22.10" fill="#f56e5f"/>
<rect x="547.00" y="189.60" width="23.10" height="22.10" fill="#f56756"/>
<rect x="569.60" y="189.60" width="23.10" height="22.10" fill="#f5604e"/>
<rect x="592.20" y="189.60" width="23.10" height="22.10" fill="#f55a47"/>
<rect x="614.80" y="189.60" width="23.10" height="22.10" fill="#f55441"/>
<rect x="637.40" y="189.60" width="23.10" height="22.10" fill="#f5503c"/>
<rect x="95.00" y="168.00" width="23.10" height="22.10" fill="#f5f5f5"/>
<rect x="117.60" y="168.00" width="23.10" height="22.10" fill="#f5f5f5"/>
<rect x="140.20" y="168.00" width="23.10" height="22.10" fill="#f5f5f5"/>
<rect x="162.80" y="168.00" width="23.10" height="22.10" fill="#f5f4f4"/>
<rect x="185.40" y="168.00" width="23.10" height="22.10" fill="#f5f4f4"/>
<rect x="208.00" y="168.00" width="23.10" height="22.10" fill="#f4f4f4"/>
<rect x="230.60" y="168.00" width="23.10" height="22.10" fill="#f4f4f4"/>
<rect x="253.20" y="168.00" width="23.10" height="22.10" fill="#f5f4f4"/>
<rect x="275.80" y="168.00" width="23.10" height="22.10" fill="#f5f4f4"/>
<rect x="298.40" y="168.00" width="23.10" height="22.10" fill="#f5f1f1"/>
<rect x="321.00" y="168.00" width="23.10" height="22.10" fill="#f5ebea"/>
<rect x="343.60" y="168.00" width="23.10" height="22.10" fill="#f5e1df"/>
<rect x="366.20" y="168.00" width="23.10" height="22.10" fill="#f5d4d0"/>
<rect x="388.80" y="168.00" width="23.10" height="22.10" fill="#f5c5bf"/>
<rect x="411.40" y="168.00" width="23.10" height="22.10" fill="#f5b5ae"/>
<rect x="434.00" y="168.00" width="23.10" height="22.10" fill="#f5a69d"/>
<rect x="456.60" y="168.00" width="23.10" height="22.10" fill="#f5998e"/>
<rect x="479.20" y="168.00" width="23.10" height="22.10" fill="#f58e82"/>
<rect x="501.80" y="168.00" width="23.10" height="22.10" fill="#f58477"/>
<rect x="524.40" y="168.00" width="23.10" height="22.10" fill="#f57c6e"/>
<rect x="547.00" y="168.00" width="23.10" height="22.10" fill="#f57566"/>
<rect x="569.60" y="168.00" width="23.10" height="22.10" fill="#f56f5f"/>
<rect x="592.20" y="168.00" width="23.10" height="22.10" fill="#f56a5a"/>
<rect x="614.80" y="168.00" width="23.10" height="22.10" fill="#f56555"/>
<rect x="637.40" y="168.00" width="23.10" height="22.10" fill="#f56250"/>
<rect x="95.00" y="146.40" width="23.10" height="22.10" fill="#f5f5f5"/>
<rect x="117.60" y="146.40" width="23.10" height="22.10" fill="#f5f5f5"/>
<rect x="140.20" y="146.40" width="23.10" height="22.10" fill="#f5f5f5"/>
<rect x="162.80" y="146.40" width="23.10" height="22.10" fill="#f4f4f4"/>
<rect x="185.40" y="146.40" width="23.10" height="22.10" fill="#f5f4f4"/>
<rect x="208.00" y="146.40" width="23.10" height="22.10" fill="#f5f4f4"/>
<rect x="230.60" y="146.40" width="23.10" height="22.10" fill="#f5f4f4"/>
<rect x="253.20" y="146.40" width="23.10" height="22.10" fill="#f5f4f4"/>
<rect x="275.80" y="146.40" width="23.10" height="22.10" fill="#f5f4f4"/>
<rect x="298.40" y="146.40" width="23.10" height="22.10" fill="#f5f1f0"/>
<rect x="321.00" y="146.40" width="23.10" height="22.10" fill="#f5eae9"/>
<rect x="343.60" y="146.40" width="23.10" height="22.10" fill="#f5e0dd"/>
<rect x="366.20" y="146.40" width="23.10" height="22.10" fill="#f5d2ce"/>
<rect x="388.80" y="146.40" width="23.10" height="22.10" fill="#f5c2bc"/>
<rect x="411.40" y="146.40" width="23.10" height="22.10" fill="#f5b2aa"/>
<rect x="434.00" y="146.40" width="23.10" height="22.10" fill="#f5a399"/>
<rect x="456.60" y="146.40" width="23.10" height="22.10" fill="#f5958a"/>
<rect x="479.20" y="146.40" width="23.10" height="22.10" fill="#f5897d"/>
<rect x="501.80" y="146.40" width="23.10" height="22.10" fill="#f57f71"/>
<rect x="524.40" y="146.40" width="23.10" height="22.10" fill="#f57768"/>
<rect x="547.00" y="146.40" width="23.10" height="22.10" fill="#f56f5f"/>
<rect x="569.60" y="146.40" width="23.10" height="22.10" fill="#f56858"/>
<rect x="592.20" y="146.40" width="23.10" height="22.10" fill="#f56351"/>
<rect x="614.80" y="146.40" width="23.10" height="22.10" fill="#f55d4c"/>
<rect x="637.40" y="146.40" width="23.10" height="22.10" fill="#f55946"/>
<rect x="95.00" y="124.80" width="23.10" height="22.10" fill="#f5f5f5"/>
<rect x="117.60" y="124.80" width="23.10" height="22.10" fill="#f5f5f5"/>
<rect x="140.20" y="124.80" width="23.10" height="22.10" fill="#f5f5f5"/>
<rect x="162.80" y="124.80" width="23.10" height="22.10" fill="#f4f4f4"/>
<rect x="185.40" y="124.80" width="23.10" height="22.10" fill="#f5f4f4"/>
<rect x="208.00" y="124.80" width="23.10" height="22.10" fill="#f5f4f4"/>
<rect x="230.60" y="124.80" width="23.10" height="22.10" fill="#f5f4f4"/>
<rect x="253.20" y="124.80" width="23.10" height="22.10" fill="#f5f4f4"/>
<rect x="275.80" y="124.80" width="23.10" height="22.10" fill="#f5f4f4"/>
<rect x="298.40" y="124.80" width="23.10" height="22.10" fill="#f5f1f1"/>
<rect x="321.00" y="124.80" width="23.10" height="22.10" fill="#f4ebea"/>
<rect x="343.60" y="124.80" width="23.10" height="22.10" fill="#f4e2e0"/>
<rect x="366.20" y="124.80" width="23.10" height="22.10" fill="#f5d5d2"/>
<rect x="388.80" y="124.80" width="23.10" height="22.10" fill="#f5c7c1"/>
<rect x="411.40" y="124.80" width="23.10" height="22.10" fill="#f5b8b1"/>
<rect x="434.00" y="124.80" width="23.10" height="22.10" fill="#f5aaa1"/>
<rect x="456.60" y="124.80" width="23.10" height="22.10" fill="#f59e93"/>
<rect x="479.20" y="124.80" width="23.10" height="22.10" fill="#f59388"/>
<rect x="501.80" y="124.80" width="23.10" height="22.10" fill="#f58a7d"/>
<rect x="524.40" y="124.80" width="23.10" height="22.10" fill="#f58275"/>
<rect x="547.00" y="124.80" width="23.10" height="22.10" fill="#f57c6d"/>
<rect x="569.60" y="124.80" width="23.10" height="22.10" fill="#f57667"/>
<rect x="592.20" y="124.80" width="23.10" height="22.10" fill="#f57162"/>
<rect x="614.80" y="124.80" width="23.10" height="22.10" fill="#f56d5d"/>
<rect x="637.40" y="124.80" width="23.10" height="22.10" fill="#f56959"/>
<rect x="95.00" y="103.20" width="23.10" height="22.10" fill="#f5f5f5"/>
<rect x="117.60" y="103.20" width="23.10" height="22.10" fill="#f5f5f5"/>
<rect x="140.20" y="103.20" width="23.10" height="22.10" fill="#f5f5f5"/>
<rect x="162.80" y="103.20" width="23.10" height="22.10" fill="#f5f4f4"/>
<rect x="185.40" y="103.20" width="23.10" height="22.10" fill="#f5f4f4"/>
<rect x="208.00" y="103.20" width="23.10" height="22.10" fill="#f5f4f4"/>
<rect x="230.60" y="103.20" width="23.10" height="22.10" fill="#f5f4f4"/>
<rect x="253.20" y="103.20" width="23.10" height="22.10" fill="#f5f4f4"/>
<rect x="275.80" y="103.20" width="23.10" height="22.10" fill="#f4f4f4"/>
<rect x="298.40" y="103.20" width="23.10" height="22.10" fill="#f5f1f1"/>
<rect x="321.00" y="103.20" width="23.10" height="22.10" fill="#f5ebea"/>
<rect x="343.60" y="103.20" width="23.10" height="22.10" fill="#f5e0de"/>
<rect x="366.20" y="103.20" width="23.10" height="22.10" fill="#f5d3cf"/>
<rect x="388.80" y="103.20" width="23.10" height="22.10" fill="#f5c3bd"/>
<rect x="411.40" y="103.20" width="23.10" height="22.10" fill="#f5b3ac"/>
<rect x="434.00" y="103.20" width="23.10" height="22.10" fill="#f5a49b"/>
<rect x="456.60" y="103.20" width="23.10" height="22.10" fill="#f5978c"/>
<rect x="479.20" y="103.20" width="23.10" height="22.10" fill="#f58c80"/>
<rect x="501.80" y="103.20" width="23.10" height="22.10" fill="#f58376"/>
<rect x="524.40" y="103.20" width="23.10" height="22.10" fill="#f57b6d"/>
<rect x="547.00" y="103.20" width="23.10" height="22.10" fill="#f57566"/>
<rect x="569.60" y="103.20" width="23.10" height="22.10" fill="#f56f60"/>
<rect x="592.20" y="103.20" width="23.10" height="22.10" fill="#f56b5a"/>
<rect x="614.80" y="103.20" width="23.10" height="22.10" fill="#f56756"/>
<rect x="637.40" y="103.20" width="23.10" height="22.10" fill="#f56352"/>
<rect x="95.00" y="81.60" width="23.10" height="22.10" fill="#f5f5f5"/>
<rect x="117.60" y="81.60" width="23.10" height="22.10" fill="#f5f5f5"/>
<rect x="140.20" y="81.60" width="23.10" height="22.10" fill="#f5f5f5"/>
<rect x="162.80" y="81.60" width="23.10" height="22.10" fill="#f4f4f4"/>
<rect x="185.40" y="81.60" width="23.10" height="22.10" fill="#f4f4f4"/>
<rect x="208.00" y="81.60" width="23.10" height="22.10" fill="#f4f4f4"/>
<rect x="230.60" y="81.60" width="23.10" height="22.10" fill="#f5f4f4"/>
<rect x="253.20" y="81.60" width="23.10" height="22.10" fill="#f5f4f4"/>
<rect x="275.80" y="81.60" width="23.10" height="22.10" fill="#f5f4f4"/>
<rect x="298.40" y="81.60" width="23.10" height="22.10" fill="#f5f1f1"/>
<rect x="321.00" y="81.60" width="23.10" height="22.10" fill="#f5ebea"/>
<rect x="343.60" y="81.60" width="23.10" height="22.10" fill="#f5e1de"/>
<rect x="366.20" y="81.60" width="23.10" height="22.10" fill="#f5d3cf"/>
<rect x="388.80" y="81.60" width="23.10" height="22.10" fill="#f5c3bd"/>
<rect x="411.40" y="81.60" width="23.10" height="22.10" fill="#f5b3ab"/>
<rect x="434.00" y="81.60" width="23.10" height="22.10" fill="#f4a49b"/>
<rect x="456.60" y="81.60" width="23.10" height="22.10" fill="#f5978c"/>
<rect x="479.20" y="81.60" width="23.10" height="22.10" fill="#f58b7f"/>
<rect x="501.80" y="81.60" width="23.10" height="22.10" fill="#f58274"/>
<rect x="524.40" y="81.60" width="23.10" height="22.10" fill="#f5796b"/>
<rect x="547.00" y="81.60" width="23.10" height="22.10" fill="#f57363"/>
<rect x="569.60" y="81.60" width="23.10" height="22.10" fill="#f56d5d"/>
<rect x="592.20" y="81.60" width="23.10" height="22.10" fill="#f56857"/>
<rect x="614.80" y="81.60" width="23.10" height="22.10" fill="#f56352"/>
<rect x="637.40" y="81.60" width="23.10" height="22.10" fill="#f55f4e"/>
<rect x="95.00" y="60.00" width="23.10" height="22.10" fill="#f5f5f5"/>
<rect x="117.60" y="60.00" width="23.10" height="22.10" fill="#f5f5f5"/>
<rect x="140.20" y="60.00" width="23.10" height="22.10" fill="#f5f5f5"/>
<rect x="162.80" y="60.00" width="23.10" height="22.10" fill="#f5f4f4"/>
<rect x="185.40" y="60.00" width="23.10" height="22.10" fill="#f5f4f4"/>
<rect x="208.00" y="60.00" width="23.10" height="22.10" fill="#f4f4f4"/>
<rect x="230.60" y="60.00" width="23.10" height="22.10" fill="#f5f4f4"/>
<rect x="253.20" y="60.00" width="23.10" height="22.10" fill="#f5f4f4"/>
<rect x="275.80" y="60.00" width="23.10" height="22.10" fill="#f5f4f4"/>
<rect x="298.40" y="60.00" width="23.10" height="22.10" fill="#f5f1f1"/>
<rect x="321.00" y="60.00" width="23.10" height="22.10" fill="#f5ebea"/>
<rect x="343.60" y="60.00" width="23.10" height="22.10" fill="#f5e1df"/>
<rect x="366.20" y="60.00" width="23.10" height="22.10" fill="#f5d4d0"/>
<rect x="388.80" y="60.00" width="23.10" height="22.10" fill="#f5c4bf"/>
<rect x="411.40" y="60.00" width="23.10" height="22.10" fill="#f5b5ad"/>
<rect x="434.00" y="60.00" width="23.10" height="22.10" fill="#f4a69d"/>
<rect x="456.60" y="60.00" width="23.10" height="22.10" fill="#f5998e"/>
<rect x="479.20" y="60.00" width="23.10" height="22.10" fill="#f58e82"/>
<rect x="501.80" y="60.00" width="23.10" height="22.10" fill="#f58477"/>
<rect x="524.40" y="60.00" width="23.10" height="22.10" fill="#f57c6e"/>
<rect x="547.00" y="60.00" width="23.10" height="22.10" fill="#f57566"/>
<rect x="569.60" y="60.00" width="23.10" height="22.10" fill="#f56f5f"/>
<rect x="592.20" y="60.00" width="23.10" height="22.10" fill="#f56959"/>
<rect x="614.80" y="60.00" width="23.10" height="22.10" fill="#f56453"/>
<rect x="637.40" y="60.00" width="23.10" height="22.10" fill="#f5604e"/>
<rect x="95" y="60" width="565" height="540" fill="none" stroke="#222"/>
<text x="95.0" y="624" font-family="Arial" font-size="12" text-anchor="middle">0.01</text>
<text x="236.2" y="624" font-family="Arial" font-size="12" text-anchor="middle">0.1</text>
<text x="377.5" y="624" font-family="Arial" font-size="12" text-anchor="middle">1</text>
<text x="518.8" y="624" font-family="Arial" font-size="12" text-anchor="middle">10</text>
<text x="660.0" y="624" font-family="Arial" font-size="12" text-anchor="middle">100</text>
<text x="83" y="604.0" font-family="Arial" font-size="12" text-anchor="end">0.01</text>
<text x="83" y="469.0" font-family="Arial" font-size="12" text-anchor="end">0.1</text>
<text x="83" y="334.0" font-family="Arial" font-size="12" text-anchor="end">1</text>
<text x="83" y="199.0" font-family="Arial" font-size="12" text-anchor="end">10</text>
<text x="83" y="64.0" font-family="Arial" font-size="12" text-anchor="end">100</text>
<text x="377.5" y="656" font-family="Arial" font-size="16" text-anchor="middle">coherence length / spacing</text>
<text x="24" y="330.0" font-family="Arial" font-size="16" text-anchor="middle" transform="rotate(-90 24 330.0)">ks</text>
<text x="690" y="60" font-family="Arial" font-size="13">color: phase-ablation RMSE</text>
<rect x="695" y="84" width="24" height="24" fill="#f5f5f5"/>
<text x="726" y="101" font-family="Arial" font-size="12">0.0 dB</text>
<rect x="695" y="112" width="24" height="24" fill="#f5d3cf"/>
<text x="726" y="129" font-family="Arial" font-size="12">3.8 dB</text>
<rect x="695" y="140" width="24" height="24" fill="#f5b1a9"/>
<text x="726" y="157" font-family="Arial" font-size="12">7.7 dB</text>
<rect x="695" y="168" width="24" height="24" fill="#f58e82"/>
<text x="726" y="185" font-family="Arial" font-size="12">11.5 dB</text>
<rect x="695" y="196" width="24" height="24" fill="#f56d5d"/>
<text x="726" y="213" font-family="Arial" font-size="12">15.4 dB</text>
<rect x="695" y="224" width="24" height="24" fill="#f54b37"/>
<text x="726" y="241" font-family="Arial" font-size="12">19.2 dB</text>
</svg>